<svg xmlns="http://www.w3.org/2000/svg" viewBox="0 0 20 20"><defs><clipPath id="a"><circle cx="10" cy="10" r="10" transform="translate(269 1280)" stroke="#fff" fill="#fff"/></clipPath></defs><g transform="translate(-269 -1280)" clip-path="url(#a)"><path d="M286.202 1284.014a4.248 4.248 0 00-6.783.488 6.467 6.467 0 00-.42.681 6.461 6.461 0 00-.42-.681 4.248 4.248 0 00-6.783-.488 5.112 5.112 0 00-1.229 3.395 6.26 6.26 0 001.724 4.108 38.388 38.388 0 004.316 4.032c.653.556 1.328 1.131 2.046 1.76l.022.019a.494.494 0 00.651 0l.022-.019c.719-.629 1.393-1.2 2.046-1.76a38.382 38.382 0 004.315-4.032 6.261 6.261 0 001.724-4.108 5.112 5.112 0 00-1.231-3.395zm-5.45 10.783c-.563.479-1.142.973-1.752 1.5a178.8 178.8 0 00-1.752-1.5c-3.428-2.921-5.693-4.851-5.693-7.388a4.126 4.126 0 01.984-2.741 3.3 3.3 0 012.508-1.13 3.331 3.331 0 012.727 1.535 5.858 5.858 0 01.756 1.5.494.494 0 00.94 0 5.859 5.859 0 01.756-1.5 3.261 3.261 0 015.235-.405 4.126 4.126 0 01.984 2.742c0 2.536-2.265 4.466-5.693 7.387z" fill="#fff"/></g></svg>