<svg xmlns="http://www.w3.org/2000/svg" viewBox="0 0 22 22"><defs><clipPath id="a"><circle cx="11" cy="11" r="11" transform="translate(238 1278)" stroke="#707070" fill="#fff"/></clipPath><style>.c{fill:#fff}</style></defs><g transform="translate(-238 -1278)" clip-path="url(#a)"><path class="c" d="M243.465 1292.417a.365.365 0 00-.516 0l-.749.749a.365.365 0 10.516.516l.749-.749a.365.365 0 000-.516zm1.06 1.057a.365.365 0 00-.516 0l-2.5 2.5a.365.365 0 10.516.516l2.5-2.5a.365.365 0 000-.516zm1.059 1.061a.365.365 0 00-.516 0l-1.248 1.248a.365.365 0 10.516.516l1.249-1.249a.365.365 0 00-.001-.515zm6.884-9.001a2.25 2.25 0 100 3.182 2.235 2.235 0 000-3.182zm-.516 2.666a1.52 1.52 0 110-2.15 1.51 1.51 0 01-.003 2.15z"/><path class="c" d="M256.341 1281.917a.365.365 0 00-.258-.258 7.529 7.529 0 00-3.82-.016 7.67 7.67 0 00-.577.175.366.366 0 00-.048.017 7.5 7.5 0 00-2.784 1.756l-.006.006-.011.007-.009.01-1.118 1.3a6.57 6.57 0 00-5.751 3.275.365.365 0 00.226.537l2.028.516-.4 1.078a1.464 1.464 0 00.338 1.536l1.99 1.99a1.463 1.463 0 001.536.338l1.078-.4.522 2.031a.365.365 0 00.537.226 6.57 6.57 0 003.263-5.752l1.3-1.117.01-.009.011-.01.006-.006a7.5 7.5 0 001.756-2.784.383.383 0 00.017-.05c.066-.19.125-.382.175-.577a7.529 7.529 0 00-.011-3.819zm-13.487 6.226a5.84 5.84 0 014.2-2.465l-2.492 2.9zm1.647 2.428l.34-.922.471.471-.712 1.138a.732.732 0 01-.099-.687zm.624 1.223l.716-1.145.5.5-.931.931zm.8.8l.931-.931.5.5-1.145.716zm1.505.906a.732.732 0 01-.687-.1l1.134-.711.471.471zm3.216.987a5.88 5.88 0 01-.787.66l-.438-1.713 2.9-2.493a5.851 5.851 0 01-1.677 3.545zm3.249-5.857l-4.865 4.174-3.838-3.835 2.952-3.435.008-.01 1.218-1.42a6.769 6.769 0 012.32-1.513l3.716 3.713a6.768 6.768 0 01-1.513 2.325zm1.764-3.1l-3.187-3.187a6.8 6.8 0 013.216-.031 6.8 6.8 0 01-.031 3.216z"/></g></svg>