<svg xmlns="http://www.w3.org/2000/svg" viewBox="0 0 22 22"><defs><clipPath id="a"><circle cx="11" cy="11" r="11" transform="translate(227 1280)" stroke="#707070" fill="#fff"/></clipPath></defs><g transform="translate(-227 -1280)" clip-path="url(#a)"><path d="M248.929 1288.658l-2.062-2.758a.322.322 0 00-.184-.125l-8.583-2.42a.355.355 0 00-.193 0l-8.59 2.424a.4.4 0 00-.188.129l-2.058 2.75a.355.355 0 00.17.549l1.817.617v4.932a.355.355 0 00.219.328l8.587 3.548a.293.293 0 00.135.027.353.353 0 00.135-.027l8.587-3.548a.355.355 0 00.219-.328v-4.932l1.817-.617a.355.355 0 00.17-.549zm-21 .034l1.62-2.165.655.18 3.691 1.017 3.487.961-2.045 2.52zm9.713 9.081l-7.874-3.255v-4.453l5.575 1.892a.355.355 0 00.389-.113l1.913-2.357v8.286zm.358-9.654l-7.266-2 7.266-2.054 7.266 2.052zm8.232 6.4l-7.878 3.255v-8.287l1.913 2.357a.355.355 0 00.39.113l5.575-1.892v4.453zm-5.569-3.313l-2.045-2.521 7.83-2.157 1.62 2.165z" fill="#fff"/></g></svg>