<svg xmlns="http://www.w3.org/2000/svg" viewBox="0 0 17 17"><defs><clipPath id="a"><circle cx="8.5" cy="8.5" r="8.5" transform="translate(228 1280)" fill="#fff" stroke="#707070"/></clipPath></defs><g transform="translate(-228 -1280)" clip-path="url(#a)" stroke="#fff" fill="none"><path d="M236.719 1284.004l1.18 2.684 3.02.249a.227.227 0 01.136.4l-2.291 1.909.686 2.838a.236.236 0 01-.355.248l-2.6-1.5-2.6 1.5a.236.236 0 01-.355-.248l.686-2.838-2.28-1.908a.227.227 0 01.136-.4l3.02-.249 1.179-2.685a.242.242 0 01.438 0z" stroke-width="1.129"/><g transform="translate(228 1280)"><circle cx="8.5" cy="8.5" r="8.5" stroke="none"/><circle cx="8.5" cy="8.5" r="8"/></g></g></svg>