<svg xmlns="http://www.w3.org/2000/svg" viewBox="0 0 17 14.002"><path data-name="Path 40" d="M13.325 1.303c.01-.49-.008-.8-.008-.8H3.683s-.018.31-.008.8H.5v.524c0 .12.02 2.938 1.76 4.483a3.932 3.932 0 002.7.968c.161 0 .327-.011.5-.025a4.632 4.632 0 002.095 1.7v2.3H5.236v1.44h-.764v.81h8.057v-.807h-.765v-1.44H9.451v-2.3a4.635 4.635 0 002.095-1.7c.169.014.335.025.5.025a3.932 3.932 0 002.7-.969C16.48 4.765 16.5 1.946 16.5 1.827v-.524zM2.958 5.529a5.115 5.115 0 01-1.374-3.178h2.151a10.47 10.47 0 00.8 3.3c.091.2.186.387.283.571a2.887 2.887 0 01-1.86-.693zm11.083 0a2.882 2.882 0 01-1.858.7c.1-.184.192-.372.283-.571a10.454 10.454 0 00.8-3.3h2.151a5.114 5.114 0 01-1.375 3.171z" fill="none" stroke="#fba905"/></svg>