<svg xmlns="http://www.w3.org/2000/svg" viewBox="8745 -1252 17.005 16"><defs><style>.cls-2{fill:#007bdf}</style></defs><g id="Group_632" data-name="Group 632" transform="translate(8574 -1844.16)" opacity=".8"><g id="external-link-symbol" transform="translate(171 593.096)"><g id="Group_485" data-name="Group 485"><path id="Path_1087" data-name="Path 1087" class="cls-2" d="M13.666 81.306h-.636a.3.3 0 00-.228.1.346.346 0 00-.09.246v3.424a1.714 1.714 0 01-.467 1.209 1.478 1.478 0 01-1.122.5H2.86a1.478 1.478 0 01-1.122-.5 1.714 1.714 0 01-.467-1.209v-8.9a1.714 1.714 0 01.467-1.209 1.477 1.477 0 011.122-.5h6.992a.3.3 0 00.229-.1.348.348 0 00.089-.246v-.685a.347.347 0 00-.089-.246.3.3 0 00-.229-.1H2.86a2.66 2.66 0 00-2.021.9A3.087 3.087 0 000 76.171v8.9a3.086 3.086 0 00.839 2.177 2.66 2.66 0 002.021.9h8.263a2.66 2.66 0 002.021-.9 3.086 3.086 0 00.839-2.177v-3.422a.347.347 0 00-.09-.246.3.3 0 00-.227-.097z" transform="translate(0 -73.09)"/></g></g><path id="Path_1175" data-name="Path 1175" class="cls-2" d="M11.778.456a1.582 1.582 0 010 2.225l-.736.742L8.832 1.2l.737-.743a1.555 1.555 0 012.209-.001zM.732 9.358L0 12.324l2.945-.743L10.3 4.164 8.1 1.94z" transform="rotate(-3 11406.706 -3047.78)"/></g></svg>