<svg xmlns="http://www.w3.org/2000/svg" viewBox="4697 -2776 98.565 32"><defs><style>.cls-4{fill:#dfe0e0;opacity:.6}</style></defs><g id="EDteam_Logo" data-name="EDteam Logo" transform="translate(4553 -2788)"><path id="Path_1" data-name="Path 1" d="M27.416 68.1a16 16 0 004.077-3.357 4.8 4.8 0 01-6.467-4.8 8 8 0 01-12.538-1.7 4 4 0 10-6.928 4A16 16 0 0027.416 68.1z" transform="translate(140.59 -26.248)" fill="#00caff"/><path id="Path_2" data-name="Path 2" d="M68.4 8.68A15.955 15.955 0 0057.6 1a4.8 4.8 0 01-.925 8 8 8 0 014.8 11.706A4 4 0 0068.4 24.68c.048-.08.083-.16.125-.24A15.981 15.981 0 0068.4 8.68z" transform="translate(105.463 11.32)" fill="#007adb"/><path id="Path_3" data-name="Path 3" d="M19.989 4a4 4 0 00-4-4h-.237A15.984 15.984 0 00.862 21.21a4.8 4.8 0 017.382-3.2A8 8 0 0115.989 8a4 4 0 004-4z" transform="translate(144.017 12)" fill="#ee3f36"/><path id="Path_4" data-name="Path 4" class="cls-4" d="M119.27 42.724H112V30.27h7.27v2.154h-4.592v2.733h4.272v2.163h-4.272v3.2h4.592z" transform="translate(67.845 -8.584)"/><path id="Path_5" data-name="Path 5" class="cls-4" d="M151.214 36.379a6.083 6.083 0 01-1.773 4.71 7.309 7.309 0 01-5.12 1.635h-3.581V30.27h3.96a6.753 6.753 0 014.8 1.6 5.875 5.875 0 011.714 4.509zm-2.781.067q0-4.022-3.59-4.022h-1.424v8.122h1.149q3.865-.001 3.865-4.1z" transform="translate(48.302 -8.584)"/><path id="Path_6" data-name="Path 6" class="cls-4" d="M180.783 42.751a5.776 5.776 0 001.658-.3v1.92a6.006 6.006 0 01-2.416.435 2.98 2.98 0 01-2.3-.79 3.386 3.386 0 01-.72-2.362v-4.576h-1.265v-1.1l1.453-.867.758-2.01h1.683v2.026h2.7v1.952h-2.7v4.591a1 1 0 00.32.816 1.248 1.248 0 00.829.265z" transform="translate(24.502 -10.508)"/><path id="Path_7" data-name="Path 7" class="cls-4" d="M203.687 48.745a4.994 4.994 0 01-3.642-1.28 4.8 4.8 0 01-1.315-3.594 5.237 5.237 0 011.216-3.7 4.994 4.994 0 016.55-.147 4.237 4.237 0 011.139 3.178v1.258H201.4a2.493 2.493 0 00.666 1.728 2.352 2.352 0 001.744.621 7.216 7.216 0 001.651-.179 8.225 8.225 0 001.622-.57v2.01a6.305 6.305 0 01-1.478.509 9.549 9.549 0 01-1.918.166zm-.371-8.026a1.686 1.686 0 00-1.312.525 2.413 2.413 0 00-.544 1.485h3.7a2.144 2.144 0 00-.509-1.485 1.741 1.741 0 00-1.335-.525z" transform="translate(8.869 -14.431)"/><path id="Path_8" data-name="Path 8" class="cls-4" d="M235.741 48.537l-.509-1.28h-.07a3.875 3.875 0 01-1.37 1.146 4.48 4.48 0 01-1.834.32 2.749 2.749 0 01-2.992-3.03 2.51 2.51 0 011.075-2.24 6.241 6.241 0 013.245-.794l1.674-.051v-.416a1.3 1.3 0 00-1.5-1.446 6.88 6.88 0 00-2.72.688l-.874-1.754a7.942 7.942 0 013.7-.861 4.649 4.649 0 012.979.835 3.064 3.064 0 011.037 2.538v6.346zm-.778-4.413l-1.018.035a3.3 3.3 0 00-1.712.41 1.28 1.28 0 00-.56 1.142c0 .73.426 1.1 1.28 1.1a2.051 2.051 0 001.453-.518 1.821 1.821 0 00.547-1.382z" transform="translate(-11.681 -14.396)"/><path id="Path_9" data-name="Path 9" class="cls-4" d="M270.823 48.551H268.2v-5.562a2.761 2.761 0 00-.362-1.539 1.242 1.242 0 00-1.1-.515 1.6 1.6 0 00-1.469.733 4.725 4.725 0 00-.458 2.41v4.48h-2.631v-9.53h2.013l.352 1.219h.138a2.653 2.653 0 011.133-1.037 3.693 3.693 0 011.683-.371 3.046 3.046 0 012.938 1.4h.234a2.582 2.582 0 011.142-1.027 3.878 3.878 0 011.706-.368 3.4 3.4 0 012.483.832 3.638 3.638 0 01.842 2.669v6.208H274.2v-5.564a2.762 2.762 0 00-.349-1.539 1.242 1.242 0 00-1.1-.515 1.648 1.648 0 00-1.446.682 3.819 3.819 0 00-.48 2.163z" transform="translate(-34.277 -14.41)"/></g></svg>