<svg xmlns="http://www.w3.org/2000/svg" viewBox="0 0 12.078 17.001"><path data-name="Union 1" d="M6.039 16.5a.285.285 0 01-.308-.26l-.73-4.663H1.117a.6.6 0 01-.435-.184.594.594 0 01-.182-.432 3.338 3.338 0 01.755-2.131 2.167 2.167 0 011.706-.947V2.96a1.183 1.183 0 01-.864-.365 1.176 1.176 0 01-.365-.865 1.178 1.178 0 01.365-.866 1.183 1.183 0 01.864-.365h6.153a1.185 1.185 0 01.867.365 1.185 1.185 0 01.365.866 1.184 1.184 0 01-.365.865 1.185 1.185 0 01-.867.365v4.923a2.169 2.169 0 011.708.947 3.338 3.338 0 01.755 2.131.587.587 0 01-.184.432.589.589 0 01-.432.184H6.836l-.49 4.644a.366.366 0 01-.1.2.276.276 0 01-.2.082z" fill="none" stroke="#53575a"/></svg>