<svg xmlns="http://www.w3.org/2000/svg" viewBox="0 0 64 64"><path data-name="Path 1170" d="M32 0A32 32 0 110 32 32 32 0 0132 0z" fill="#dfe0e0"/><path data-name="Path 1173" d="M52.001 19.858a16.357 16.357 0 01-4.721 1.269 7.96 7.96 0 003.6-4.518 16.092 16.092 0 01-5.2 1.979 8.218 8.218 0 00-11.79-.191 7.9 7.9 0 00-2.4 5.8 9.1 9.1 0 00.2 1.878 22.844 22.844 0 01-9.429-2.525 23.242 23.242 0 01-7.475-6.053 8.215 8.215 0 00-.121 8.044 8.189 8.189 0 002.665 2.919 8.133 8.133 0 01-3.705-1.039v.1a7.922 7.922 0 001.865 5.22 8.065 8.065 0 004.711 2.827 8.494 8.494 0 01-2.157.279 10.458 10.458 0 01-1.548-.126 8.216 8.216 0 007.665 5.685 16.051 16.051 0 01-10.178 3.5 17.453 17.453 0 01-1.98-.1 22.767 22.767 0 0012.589 3.68 23.952 23.952 0 008.2-1.383 20.836 20.836 0 006.549-3.706 24.8 24.8 0 004.683-5.342 23.824 23.824 0 002.932-6.307 23.3 23.3 0 00.964-6.587q0-.711-.026-1.066a17.169 17.169 0 004.107-4.237z" fill="#282d31"/></svg>